<svg width="112" height="125" viewBox="0 0 112 125" fill="none" xmlns="http://www.w3.org/2000/svg">
<path d="M64.5 60C66.9 64.8 68.1667 71.3333 68.5 74L74 61C73.6667 60 73.2 56 74 48C74.8 40 84.6667 13.3333 89.5 1C85.3333 6.66667 76 19.5 72 25.5C68 31.5 61.3333 44 58.5 49.5C59.5 51 62.1 55.2 64.5 60Z" fill="white"/>
<path d="M81 97.5C78.2 99.9 74.5 104.167 73 106L72.5 91.5C73 89.5 74.3 84.5 75.5 80.5C76.7 76.5 80 68 86.5 56.5C88.1667 54 92.9 47.7 96.5 44.5C100.1 41.3 106 37.5 111.5 34.5C104 43 105 42 98 54.5C92.302 64.6751 91.3333 80.6667 91.5 90C89.1667 91.5 83.8 95.1 81 97.5Z" fill="white"/>
<path d="M61 89C61 108.2 57.6667 121 56 125C43.2 105.8 26.6667 93 20 89C19.5 83 18 69.1 16 61.5C14 53.9 4.5 40.3333 0 34.5C4.5 36.5 15.4 42.2 23 49C30.6 55.8 35.8333 66.5 37.5 71C37.5 66.3333 37.2 54.4 36 44C34.8 33.6 25.8333 10.3333 21.5 0C25.3333 5.83333 33 15 39 25.5C43.1287 32.7252 61 65 61 89Z" fill="white"/>
</svg>
