<svg width="654" height="698" viewBox="0 0 654 698" fill="none" xmlns="http://www.w3.org/2000/svg">
<mask id="mask0_4002_77" style="mask-type:luminance" maskUnits="userSpaceOnUse" x="0" y="0" width="654" height="698">
<path d="M654 0H0V697.6H654V0Z" fill="white"/>
</mask>
<g mask="url(#mask0_4002_77)">
<path d="M39.3843 212.55C14.2822 258.041 0 310.137 0 365.535C0 420.932 14.2822 473.076 39.3843 518.567V212.55Z" fill="#C28F2B"/>
<path d="M327 44.0808C300.471 44.0808 274.728 47.2867 250.027 53.1054V103.694C274.488 96.8016 300.279 93.0186 327 93.0186C480.081 93.0186 604.197 214.65 604.197 364.717C604.197 432.297 578.95 494.107 537.29 541.65L529.387 569.381L511.899 630.757C597.721 572.827 654.048 475.673 654.048 365.615C654 187.993 507.603 44.0808 327 44.0808Z" fill="#C28F2B"/>
<path d="M250.027 532.369H500.839H506.321C548.767 488.769 574.911 429.732 574.911 364.717C574.911 230.519 463.939 121.759 327.016 121.759C300.135 121.759 274.295 126.039 250.043 133.749V532.369H250.027Z" fill="#C28F2B"/>
<path d="M220.372 0H33.79L69.0226 71.908V625.74L33.79 697.6H461.984L500.823 561.51H220.372V0Z" fill="#C28F2B"/>
</g>
</svg>
